# xmcd
#
# Track frame offsets: 
#        150
#        12594
#        34000
#        53865
#        67590
#        78683
#        90752
#        107141
#        123651
#        138775
#        154323
#        167926
#
# Disc length: 2514 seconds
#
# Revision: 3
# Processed by: cddbd v1.5.2PL0 Copyright (c) Steve Scherf et al.
# Submitted via: ExactAudioCopy v1.0b4
#
DISCID=9609d00c
DTITLE=Kris Kristofferson - Kristofferson
DYEAR=1970
DGENRE=
TTITLE0=Blame it on the stones
TTITLE1=To beat the devil
TTITLE2=Me and Bobby Mcgee
TTITLE3=The best of all possible  worlds
TTITLE4=Help me make it through the night
TTITLE5=The law is for protection of the people
TTITLE6=Casey's last ride
TTITLE7=Just the other side of nowhere
TTITLE8=Darby's castle
TTITLE9=For the good times
TTITLE10=Duvalier's dream
TTITLE11=Sunday mornin' comin' down
EXTD=
EXTT0=
EXTT1=
EXTT2=
EXTT3=
EXTT4=
EXTT5=
EXTT6=
EXTT7=
EXTT8=
EXTT9=
EXTT10=
EXTT11=
PLAYORDER=
